Patient4_TMGait_0pt7_02_left_49_EMG.mot
version=1
nRows=33
nColumns=33
inDegrees=no
endheader
time	1LAddLong	2LGlutMax	3LGlutMed	4LIliopsoas	5LSemiMemb	6LBicFemLong	7LRecFem	8LVastMed	9LVastLat	10LGasMed	11LTibAnt	12lTibPost	13LPeroneusLong	14LSol	15LExtDigLong	16LFlexDigLong	17RAddLong	18RGlutMax	19RGlutMed	20RIliopsoas	21RSemiMemb	22RBicFemLong	23RRecFem	24RVastMed	25RVastLat	26RGasMed	27RTibAnt	28RTibPost	29RPeroneusLong	30RSol	31RExtDigLong	32RFlexDigLong
56.5	-0.009003	1.2097	0.11856	-0.001984	-0.17853	-0.25604	-0.401	0.003052	0.11841	0.036316	-0.051422	0.051575	0.30075	0.057678	0.058899	-0.018005	0.033417	-0.9346	-0.10162	0.064697	-0.23239	-0.050659	1.1246	-0.1265	-0.015869	0.015717	0.078583	0.008698	-0.098114	0.02594	-0.002747	-0.016022
56.501	-0.004272	1.1772	0.15839	0.023193	-0.15976	-0.17899	-0.37567	0.007782	0.14481	0.019836	-0.03067	0.060577	0.10513	0.09552	0.19745	-0.025482	0.079346	-0.87128	-0.14587	0.084686	-0.27084	-0.063782	1.0919	-0.17929	-0.013123	0.014954	0.14893	-0.000458	-0.10651	-0.007629	-0.00351	-0.00885
56.502	-0.00885	1.0542	0.10498	0.004883	-0.18921	-0.25269	-0.36774	0.002747	0.15091	0.005493	0.036926	0.059662	-0.18448	0.1915	0.12299	-0.041809	0.090942	-0.79117	-0.44693	0.09079	-0.32272	-0.065613	0.88119	-0.16647	-0.009003	0.016174	0.19348	0.00351	-0.084381	-0.041656	-0.003662	-0.005493
56.503	0.01297	0.89081	0.12253	-0.018921	-0.15793	-0.48309	-0.33752	-0.011597	0.16327	0.028839	0.067139	0.054932	-0.06424	0.13229	-0.028076	-0.019073	0.083618	-0.67169	-0.51254	0.092316	-0.30334	-0.055084	0.73547	-0.16357	0.023499	0.015106	-0.012512	0.000305	-0.045166	-0.009155	-0.003662	-0.006561
56.504	0.057678	0.62408	-0.1152	-0.014496	0.089111	-0.53879	-0.32516	-0.013428	0.19379	0.018768	0.065002	0.056763	0.1857	0.092316	-0.087128	-0.019226	0.077515	-0.53772	-0.28961	0.054169	-0.32028	-0.048676	0.73975	-0.21805	0.031281	0.019531	-0.24185	0.000305	0.023041	0.019073	-0.003357	-0.000916
56.505	0.082703	0.37033	-0.12802	0.000153	0.18204	-0.16754	-0.34821	-0.019073	0.21835	-0.001221	0.019989	0.055084	0.39047	-0.025482	-0.14648	-0.015411	0.03418	-0.37155	-0.031586	-0.055237	-0.29083	0.023956	0.71793	-0.23178	0.036163	0.019379	-0.19257	0.004425	-0.001831	0.024261	-0.002747	-0.001678
56.506	0.075989	0.14191	0.1297	-0.007172	0.18677	0.091553	-0.32806	-0.014648	0.22842	0.026703	-0.076752	0.044098	0.35934	-0.080872	-0.034637	-0.014801	0.079956	-0.27054	-0.097351	-0.11749	-0.21225	0.039063	0.74814	-0.23239	0.053253	0.011749	-0.034332	0.000305	-0.053101	0.027161	-0.000763	-0.001984
56.507	0.067291	-0.07782	0.41321	-0.007935	0.080109	0.14603	-0.30518	-0.011749	0.22568	0.025787	-0.032806	0.045319	0.066833	0.011292	0.12177	-0.016479	0.10269	0.007629	-0.28702	-0.065918	-0.20325	0.028839	0.70694	-0.26977	0.076141	0.016937	0.071564	0.000916	-0.087738	0.029297	-0.001221	-0.004883
56.508	0.03952	-0.25909	0.15778	-0.001068	0.006714	-0.000916	-0.25757	-0.02243	0.2211	0.06485	0.095062	0.032043	-0.55328	-0.03067	0.19134	-0.031891	0.11627	0.22049	-0.32547	-0.060272	-0.22888	0.030823	0.68008	-0.29556	0.067444	0.016632	0.15488	-0.00061	-0.084839	0.040741	-0.00412	-0.007935
56.509	0.028687	-0.32318	0.11063	-0.026398	-0.037689	-0.057983	-0.22156	0.017548	0.22492	0.053406	0.12802	0.032654	-0.85907	0.014801	0.074158	-0.030823	0.13473	0.50156	-0.22293	-0.072174	-0.21851	0.029907	0.71274	-0.30395	0.061798	0.01236	0.15106	-0.005493	-0.046539	0.005646	-0.003662	-0.010071
56.51	0.017242	-0.27374	-0.10696	-0.023651	-0.045319	-0.052795	-0.16357	-0.036469	0.2385	0.029755	0.095978	0.02594	-0.61554	0.046997	-0.054016	-0.031433	0.3067	0.76187	-0.345	0.018921	-0.1944	0.036163	0.72937	-0.29984	0.051117	0.018311	0.11551	-0.003357	-0.079346	-0.006714	-0.002136	-0.010376
56.511	0.018311	-0.23483	-0.1828	0.00412	-0.079193	0.002289	-0.15961	0.012054	0.25665	0.002747	-0.002747	0.009613	0.014191	0.011292	-0.21774	-0.014038	0.34439	0.96878	-0.17654	0.075226	-0.18173	0.054779	0.74982	-0.28686	0.029297	0.015564	0.12238	-0.000153	-0.12024	-0.025482	-0.003662	-0.008698
56.512	0.019684	-0.20477	0.072784	0.014191	-0.067596	0.20859	-0.17746	0.010986	0.21912	0.010223	-0.016785	0.003052	0.004883	-0.018921	-0.24857	-0.021515	0.18982	1.2233	-0.24017	0.091248	-0.16144	0.059052	0.71625	-0.25757	0.047455	0.009308	0.13992	-0.003052	-0.1152	-0.095367	0.005188	-0.012817
56.513	0.006866	-0.3157	0.13718	0.020294	-0.05127	0.31754	-0.17807	0.032806	0.20706	0.052338	-0.010529	0.002899	-0.015869	-0.051575	-0.25223	-0.020294	-0.014191	1.4355	-0.58105	0.096741	-0.14725	0.088196	0.77606	-0.24078	0.046692	0.008392	0.18158	-0.001068	-0.070953	-0.060272	-0.005188	-0.010071
56.514	0.009003	-0.39032	0.17929	0.010834	-0.074615	0.42129	-0.17899	0.035248	0.21103	0.089722	-0.030823	-0.000305	0.055389	0.007935	-0.16296	-0.028381	-0.16617	1.6585	-0.11505	0.14847	-0.12177	0.069885	0.77469	-0.27008	0.040588	0.010834	0.1889	-0.005646	-0.033722	-0.063934	-0.003052	-0.003967
56.515	0.019226	-0.5043	0.19119	0.025787	-0.055389	0.51178	-0.21668	0.031738	0.21164	0.11475	-0.038605	-0.007477	0.21912	0.00412	-0.03952	-0.019379	-0.25055	1.7894	0.25299	0.25421	-0.12573	0.053101	0.80933	-0.24567	0.025024	0.011902	0.12283	-0.006866	-0.09079	-0.062103	-0.003967	-0.008698
56.516	0.001068	-0.52673	0.12253	0.027924	-0.046387	0.49225	-0.22583	0.030212	0.24216	0.12894	-0.038605	-0.01358	0.50934	0.007935	0.041046	-0.020447	-0.215	1.7982	-0.059662	0.37048	-0.13763	0.076141	0.78659	-0.19241	0.038147	0.020599	0.13016	-0.002899	-0.12833	-0.032349	-0.010071	0.00061
56.517	0.001373	-0.5571	0.046692	0.020447	-0.010681	0.49927	-0.12772	-0.006104	0.29297	0.12878	-0.018158	-0.014038	0.11307	0.023804	0.08255	-0.017853	-0.041656	1.7711	-0.4451	0.3421	-0.13123	0.11322	0.82779	-0.2243	0.025482	0.009766	0.1358	-0.007324	-0.11795	-0.041351	-0.003662	-0.00473
56.518	-0.018463	-0.56961	-0.012207	0.013428	-0.042419	0.35095	-0.075073	-0.018921	0.26474	0.13473	-0.005341	-0.013428	-0.19486	-0.002899	0.090485	-0.015564	0.20615	1.7903	-0.54794	0.1944	-0.13763	0.10925	0.86716	-0.24109	0.026245	0.011902	0.11246	-0.003052	-0.062714	-0.039063	-0.001678	0.001373
56.519	-0.015106	-0.58182	0.082245	0.03418	-0.094299	-0.082245	-0.035706	-0.022888	0.37643	0.089111	-0.020447	-0.022736	-0.1918	0.025635	0.063019	-0.030518	0.36972	1.8365	-0.37491	0.13031	-0.13062	0.090637	0.86624	-0.21149	0.04715	0.012665	0.10391	-0.007019	-0.017242	-0.054474	-0.004883	0.006104
56.52	-0.015259	-0.52063	-0.065155	0.024567	-0.054626	-0.34546	0.036163	-0.025787	0.34454	0.041351	-0.031738	-0.02594	-0.31784	0.007782	0.19318	-0.022278	0.23086	1.8428	-0.12894	0.07431	-0.12131	0.099335	0.84869	-0.32303	0.04776	0.009766	0.12283	-0.007782	-0.060883	-0.043488	-0.003204	0.010986
56.521	-0.008545	-0.50369	-0.121	0.014343	-0.062714	-0.39566	-0.012665	-0.018463	0.28397	0.013123	-0.03067	-0.02121	-0.20203	-0.011444	0.046387	-0.01709	0.063782	1.8729	-0.074463	-0.058594	-0.14343	0.09079	0.83695	-0.36301	0.03067	0.013428	0.10696	-0.00351	-0.071869	-0.04776	0.001068	0.020599
56.522	0.006256	-0.45609	-0.084991	-0.014038	0.03952	-0.52292	-0.058899	-0.020294	0.005798	0.058136	-0.068512	-0.023499	-0.19211	0.051575	0.075989	-0.019226	-0.050964	1.8433	-0.005798	-0.087433	-0.14694	0.13229	0.92026	-0.32867	0.043945	0.014954	0.065308	-0.008392	-0.06546	-0.062408	-0.004578	0.003815
56.523	0.006866	-0.41473	0.073853	-0.037842	0.06897	-0.47989	-0.12131	-0.056	-0.10437	0.103	-0.075378	-0.020905	0.31403	0.10925	0.1149	-0.011139	-0.17303	1.8747	-0.16129	-0.16495	-0.15213	0.15564	0.96283	-0.27557	0.05188	0.00412	0.089874	-0.005798	-0.068512	-0.061493	0.003967	0.001221
56.524	0.016632	-0.41077	0.087891	-0.017395	0.02533	-0.1445	-0.088806	-0.027924	0.027618	0.077209	-0.069275	-0.007782	0.35126	0.051117	0.031586	-0.015106	-0.18585	1.9337	-0.14893	-0.23911	-0.1828	0.088043	1.0225	-0.26627	0.047302	0.002899	0.09201	-0.002747	-0.066986	-0.071869	-0.001831	0.006409
56.525	0.010834	-0.40146	0.056458	-0.007935	-0.033722	0.074463	-0.080261	0.005646	0.10132	0.053253	-0.04715	-0.014343	-0.06485	0.007629	0.00412	-0.029144	-0.17456	1.8843	0.30289	-0.26657	-0.18845	0.071411	1.1259	-0.20798	0.056915	0.002747	0.099792	-0.009613	-0.087738	-0.067749	-0.003967	0.00946
56.526	0.016174	-0.42343	-0.057831	0.005035	-0.064087	0.10895	-0.16342	-0.01236	0.10757	0.023499	0.11795	-0.005493	-0.025635	0.076752	0.023956	-0.018463	-0.19287	1.8736	0.3418	-0.18906	-0.17288	0.061035	1.0722	-0.16464	0.056152	0.002747	0.09964	-0.010834	-0.10544	-0.055542	-0.004272	0.008545
56.527	0.007935	-0.41672	-0.016785	0.012207	-0.089569	0.15243	-0.26733	-0.009613	0.12085	-0.013428	0.33707	-0.010986	0.006866	0.055847	0.14648	-0.018311	-0.13046	1.8155	0.22263	-0.1297	-0.14572	0.066986	1.0347	-0.093536	0.04364	-0.002899	0.093079	-0.002899	-0.12238	-0.048981	-0.007324	0.009155
56.528	0.012817	-0.41184	-0.045471	0.001984	-0.062561	0.095978	-0.24277	-0.005798	0.15366	-0.014954	0.36774	-0.005493	-0.10742	0.080719	-0.23621	-0.017242	-0.085297	1.6641	-0.041351	-0.04715	-0.093689	0.0737	0.96802	-0.088348	0.059814	-0.00061	0.091858	-0.006866	-0.103	-0.051727	-0.003967	0.011292
56.529	0.005798	-0.36758	-0.00061	0.008698	0.04425	-0.092163	-0.20554	-0.008698	0.14343	-0.010376	0.13718	-0.011902	0.068665	0.083771	-0.17639	-0.026398	-0.052948	1.6156	0.11871	-0.045319	-0.056763	0.084076	0.77621	-0.019684	0.088501	0.005188	0.082245	-0.005341	-0.098267	-0.06485	-0.002441	0.014801
56.53	0.027466	-0.31067	-0.045166	0.015717	0.056915	-0.052643	-0.2034	-0.011749	0.15686	-0.030975	-0.18997	-0.002594	0.34882	0.058289	-0.24094	-0.021362	-0.031738	1.4832	-0.11841	0.12833	-0.038757	0.088348	0.60638	0.063019	0.074005	0.007324	0.065002	-0.004272	-0.10132	-0.067902	-0.003815	0.016785
56.531	0.018768	-0.21164	-0.087738	0.009766	0.016785	-0.10483	-0.18616	-0.010223	0.18738	0.00885	-0.23163	-0.018005	0.20172	0.002899	-0.31372	-0.031281	-0.018158	1.243	-0.4184	0.25116	-0.041351	0.093842	0.45593	-0.000916	0.099487	-0.001526	0.062714	-0.005798	-0.077209	-0.069885	-0.002899	0.01709
56.532	0.005951	-0.13748	-0.12756	-0.000458	0.032806	-0.0737	-0.058136	-0.010376	0.1767	0.030365	-0.00412	-0.013428	-0.13168	0.001526	-0.13504	-0.031433	0.029297	1.1221	-0.31906	0.24353	-0.019989	0.10468	0.32577	-0.027008	0.090179	-0.001984	0.067139	-0.003052	-0.056305	-0.051727	-0.002441	0.027466
